<svg width="736" height="717" viewBox="0 0 736 717" fill="none" xmlns="http://www.w3.org/2000/svg">
<path d="M241.5 212.859V168.047C241.5 165.076 240.288 162.226 238.132 160.125C235.975 158.024 233.05 156.844 230 156.844C226.95 156.844 224.025 158.024 221.868 160.125C219.712 162.226 218.5 165.076 218.5 168.047V212.859C218.5 215.831 219.712 218.68 221.868 220.781C224.025 222.882 226.95 224.062 230 224.062C233.05 224.062 235.975 222.882 238.132 220.781C240.288 218.68 241.5 215.831 241.5 212.859Z" fill="#004E64" fill-opacity="0.1"/>
<path d="M494.5 425.719V380.906C494.5 377.935 493.288 375.085 491.132 372.984C488.975 370.883 486.05 369.703 483 369.703C479.95 369.703 477.025 370.883 474.868 372.984C472.712 375.085 471.5 377.935 471.5 380.906V425.719C471.5 428.69 472.712 431.54 474.868 433.641C477.025 435.742 479.95 436.922 483 436.922C486.05 436.922 488.975 435.742 491.132 433.641C493.288 431.54 494.5 428.69 494.5 425.719Z" fill="#004E64" fill-opacity="0.1"/>
<path d="M563.5 425.719V380.906C563.5 377.935 562.288 375.085 560.132 372.984C557.975 370.883 555.05 369.703 552 369.703C548.95 369.703 546.025 370.883 543.868 372.984C541.712 375.085 540.5 377.935 540.5 380.906V425.719C540.5 428.69 541.712 431.54 543.868 433.641C546.025 435.742 548.95 436.922 552 436.922C555.05 436.922 557.975 435.742 560.132 433.641C562.288 431.54 563.5 428.69 563.5 425.719Z" fill="#004E64" fill-opacity="0.1"/>
<path d="M724.339 255.823L712.839 188.605C712.488 186.51 711.533 184.555 710.085 182.968C708.638 181.381 706.757 180.228 704.662 179.642L563.5 140.386V100.828H667C670.05 100.828 672.975 99.6478 675.132 97.5468C677.288 95.4458 678.5 92.5963 678.5 89.625V22.4062C678.5 19.435 677.288 16.5854 675.132 14.4844C672.975 12.3835 670.05 11.2031 667 11.2031H632.5C629.45 11.2031 626.525 12.3835 624.368 14.4844C622.212 16.5854 621 19.435 621 22.4062C621 25.3775 622.212 28.2271 624.368 30.3281C626.525 32.4291 629.45 33.6094 632.5 33.6094H655.5V78.4219H563.5V33.6094H586.5C589.55 33.6094 592.475 32.4291 594.632 30.3281C596.788 28.2271 598 25.3775 598 22.4062C598 19.435 596.788 16.5854 594.632 14.4844C592.475 12.3835 589.55 11.2031 586.5 11.2031H552C548.95 11.2031 546.025 12.3835 543.868 14.4844C541.712 16.5854 540.5 19.435 540.5 22.4062V133.989L471.5 114.787V67.2188C471.502 64.9795 470.815 62.7911 469.527 60.936C468.24 59.0808 466.412 57.6441 464.278 56.8111L406.778 34.4048C404.428 33.4887 401.834 33.3533 399.397 34.0197C396.96 34.6861 394.817 36.117 393.3 38.0906L362.25 78.4219H285.602L274.85 20.4121C274.546 18.7754 273.872 17.2252 272.877 15.8738C271.882 14.5225 270.59 13.4039 269.096 12.5994C267.602 11.7949 265.943 11.3246 264.239 11.2226C262.535 11.1206 260.829 11.3895 259.244 12.0098L87.745 79.2285C85.4079 80.1354 83.4405 81.7638 82.1443 83.8642C80.8482 85.9647 80.2948 88.4212 80.569 90.8573L90.6545 179.25H57.5C55.3629 179.249 53.2678 179.828 51.4498 180.923C49.6318 182.017 48.1627 183.583 47.2075 185.445L12.7075 252.664C11.4125 255.164 11.1251 258.045 11.902 260.74C12.6789 263.436 14.4637 265.751 16.905 267.228L108.905 323.244C109.986 323.9 111.171 324.377 112.412 324.655L135.412 329.82C136.884 330.15 138.408 330.195 139.898 329.951C141.387 329.708 142.813 329.181 144.093 328.401C145.373 327.621 146.483 326.602 147.36 325.404C148.236 324.206 148.862 322.851 149.201 321.418C149.54 319.984 149.586 318.499 149.336 317.048C149.086 315.597 148.545 314.209 147.744 312.961C146.943 311.714 145.898 310.632 144.668 309.779C143.438 308.925 142.048 308.315 140.576 307.985L119.462 303.246L37.95 253.572L64.607 201.656H103.5C105.117 201.656 106.716 201.324 108.192 200.682C109.668 200.039 110.989 199.1 112.068 197.927C113.147 196.753 113.959 195.371 114.452 193.871C114.946 192.371 115.109 190.786 114.931 189.221L104.397 96.851L254.702 37.9338L264.684 91.6192C265.164 94.2026 266.559 96.5398 268.628 98.2229C270.696 99.906 273.305 100.828 276 100.828H368C369.785 100.828 371.546 100.423 373.143 99.6454C374.74 98.8676 376.129 97.7383 377.2 96.3469L406.41 58.4019L448.5 74.8033V123.234C448.501 125.668 449.315 128.034 450.819 129.977C452.324 131.919 454.436 133.331 456.837 134.001L540.5 157.292V218.461C540.5 221.432 541.712 224.282 543.868 226.383C546.025 228.484 548.95 229.664 552 229.664C555.05 229.664 557.975 228.484 560.132 226.383C562.288 224.282 563.5 221.432 563.5 218.461V163.7L691.357 199.292L700.557 252.81L614.1 315.928C611.826 317.592 610.266 320.017 609.72 322.736C609.174 325.454 609.682 328.274 611.144 330.649L642.539 381.612L629.36 409.866C628.695 411.211 628.312 412.671 628.234 414.161C628.155 415.652 628.383 417.142 628.905 418.546C629.426 419.949 630.23 421.237 631.269 422.333C632.308 423.43 633.562 424.313 634.956 424.931C636.351 425.549 637.858 425.889 639.389 425.932C640.92 425.975 642.445 425.719 643.873 425.18C645.302 424.64 646.605 423.829 647.707 422.792C648.809 421.755 649.688 420.514 650.29 419.143L665.976 385.533C666.748 383.88 667.096 382.069 666.99 380.256C666.884 378.443 666.327 376.682 665.367 375.125L636.203 327.77L719.9 266.634C721.586 265.402 722.892 263.741 723.674 261.835C724.457 259.928 724.687 257.849 724.339 255.823Z" fill="#004E64" fill-opacity="0.1"/>
<path d="M623.668 449.122C622.291 448.515 620.804 448.178 619.294 448.131C617.783 448.084 616.277 448.327 614.863 448.848C613.449 449.368 612.154 450.155 611.052 451.163C609.95 452.171 609.063 453.381 608.442 454.724L589.306 495.716L466.739 549.961C465.174 550.655 463.788 551.682 462.684 552.967C461.58 554.251 460.786 555.761 460.36 557.384C459.934 559.007 459.887 560.703 460.223 562.346C460.559 563.989 461.269 565.538 462.3 566.878L490.452 603.445L401.718 680.287L337.744 635.766L377.568 577.577C378.863 575.686 379.537 573.456 379.5 571.182C379.463 568.909 378.717 566.701 377.361 564.85L322.633 490.204L333.351 427.567C333.755 425.204 333.372 422.776 332.256 420.641C331.141 418.506 329.352 416.775 327.152 415.703L286.189 395.75L275.839 345.101C275.404 342.987 274.353 341.041 272.811 339.495C271.269 337.949 269.301 336.869 267.145 336.385L186.645 318.292C183.673 317.623 180.55 318.133 177.963 319.707C175.376 321.282 173.537 323.793 172.851 326.689C172.165 329.584 172.687 332.627 174.304 335.147C175.92 337.667 178.498 339.458 181.47 340.127L254.737 356.595L264.73 405.553C265.07 407.229 265.8 408.807 266.862 410.166C267.924 411.525 269.292 412.63 270.86 413.395L309.258 432.093L299.161 491.145C298.911 492.596 298.957 494.081 299.297 495.515C299.636 496.949 300.262 498.304 301.139 499.503L354.039 571.628L312.444 632.416C310.786 634.837 310.16 637.792 310.698 640.654C311.237 643.517 312.898 646.063 315.33 647.754L395.83 703.769C397.951 705.246 400.524 705.978 403.127 705.844C405.731 705.709 408.21 704.717 410.159 703.03L513.659 613.405C515.83 611.533 517.195 608.931 517.481 606.12C517.766 603.31 516.952 600.497 515.2 598.247L489.291 564.638L602.761 514.391C605.314 513.269 607.359 511.277 608.511 508.79L629.418 463.977C630.045 462.635 630.394 461.185 630.444 459.71C630.494 458.236 630.245 456.767 629.71 455.386C629.176 454.006 628.367 452.742 627.331 451.667C626.294 450.592 625.049 449.727 623.668 449.122Z" fill="#004E64" fill-opacity="0.1"/>
<path d="M368 257.672C371.05 257.672 373.975 256.492 376.132 254.391C378.288 252.29 379.5 249.44 379.5 246.469C379.5 243.497 378.288 240.648 376.132 238.547C373.975 236.446 371.05 235.266 368 235.266H356.5C353.45 235.266 350.525 236.446 348.368 238.547C346.212 240.648 345 243.497 345 246.469C345 249.44 346.212 252.29 348.368 254.391C350.525 256.492 353.45 257.672 356.5 257.672H368Z" fill="#004E64" fill-opacity="0.1"/>
<path d="M414 257.672C417.05 257.672 419.975 256.492 422.132 254.391C424.288 252.29 425.5 249.44 425.5 246.469C425.5 243.497 424.288 240.648 422.132 238.547C419.975 236.446 417.05 235.266 414 235.266H402.5C399.45 235.266 396.525 236.446 394.368 238.547C392.212 240.648 391 243.497 391 246.469C391 249.44 392.212 252.29 394.368 254.391C396.525 256.492 399.45 257.672 402.5 257.672H414Z" fill="#004E64" fill-opacity="0.1"/>
<path d="M403.016 273.017L487.499 220.5L434.982 304.983" fill="black"/>
<path d="M419 426C494.663 426 556 364.663 556 289C556 213.337 494.663 152 419 152C343.337 152 282 213.337 282 289C282 364.663 343.337 426 419 426Z" fill="#FCEA2B"/>
<path d="M516.041 191.958C535.153 211.164 548.152 235.596 553.4 262.177C558.649 288.758 555.912 316.298 545.534 341.326C535.157 366.354 517.603 387.751 495.086 402.819C472.568 417.887 446.094 425.953 419 426C382.668 425.902 347.825 411.555 321.958 386.042" fill="#25A18E"/>
<path d="M403.017 273.017L350.5 357.5L434.984 304.983" fill="white"/>
<path d="M403.017 273.017L487.5 220.5L434.983 304.983" fill="#EA5A47"/>
<path d="M419 426C494.663 426 556 364.663 556 289C556 213.337 494.663 152 419 152C343.337 152 282 213.337 282 289C282 364.663 343.337 426 419 426Z" stroke="#004E64" stroke-width="17" stroke-linecap="round" stroke-linejoin="round"/>
<path d="M403.017 273.017L350.5 357.5L434.984 304.983" stroke="#004E64" stroke-width="12" stroke-linecap="round" stroke-linejoin="round"/>
<path d="M403.017 273.017L487.5 220.5L434.983 304.983" stroke="#004E64" stroke-width="12" stroke-linecap="round" stroke-linejoin="round"/>
<path d="M419 210.821V184.761" stroke="#004E64" stroke-width="17" stroke-linecap="round" stroke-linejoin="round"/>
<path d="M419 393.239V367.179" stroke="#004E64" stroke-width="17" stroke-linecap="round" stroke-linejoin="round"/>
<path d="M497.18 289H523.239" stroke="#004E64" stroke-width="17" stroke-linecap="round" stroke-linejoin="round"/>
<path d="M314.761 289H340.821" stroke="#004E64" stroke-width="17" stroke-linecap="round" stroke-linejoin="round"/>
</svg>
